<?xml version="1.0" standalone="no"?>
<!DOCTYPE svg PUBLIC "-//W3C//DTD SVG 20010904//EN"
 "http://www.w3.org/TR/2001/REC-SVG-20010904/DTD/svg10.dtd">
<svg version="1.0" xmlns="http://www.w3.org/2000/svg"
 width="550.000000pt" height="550.000000pt" viewBox="0 0 550.000000 550.000000"
 preserveAspectRatio="xMidYMid meet">

<g transform="translate(0.000000,550.000000) scale(0.100000,-0.100000)"
fill="#000000" stroke="none">
<path d="M2440 5385 c-312 -38 -593 -123 -880 -266 -515 -258 -921 -664 -1179
-1179 -193 -386 -281 -760 -281 -1190 0 -430 88 -804 281 -1190 258 -515 664
-921 1179 -1179 386 -193 760 -281 1190 -281 430 0 804 88 1190 281 515 258
921 664 1179 1179 193 386 281 760 281 1190 0 430 -88 804 -281 1190 -401 800
-1174 1341 -2068 1445 -152 18 -464 18 -611 0z m253 -332 c-13 -2 -33 -2 -45
0 -13 2 -3 4 22 4 25 0 35 -2 23 -4z m618 -58 c305 -74 593 -211 859 -409 123
-92 344 -314 443 -443 66 -88 217 -322 217 -338 0 -3 20 -46 45 -96 89 -180
163 -430 200 -669 24 -156 24 -485 1 -636 -39 -245 -108 -481 -199 -677 -72
-153 -210 -374 -290 -464 l-20 -23 -17 38 c-9 20 -32 82 -50 137 -100 301
-217 470 -408 588 -51 32 -94 57 -98 57 -3 0 -110 51 -237 114 -128 62 -275
133 -327 156 -106 48 -145 83 -174 157 -22 58 -43 93 -55 93 -16 0 -21 -52
-35 -330 -10 -206 -18 -284 -30 -312 -9 -21 -16 -53 -16 -72 0 -34 -33 -85
-105 -162 -15 -16 -53 -63 -85 -104 -73 -94 -152 -172 -165 -162 -6 4 -22 23
-35 42 -13 19 -43 57 -67 83 -25 26 -56 73 -70 105 -15 31 -38 75 -52 97 -15
22 -32 51 -39 65 -7 14 -28 43 -47 65 -33 38 -34 39 -35 15 0 -14 -10 -64 -22
-112 l-22 -88 -41 0 c-31 0 -48 7 -72 29 -42 38 -47 62 -40 187 2 56 1 136 -4
176 -17 129 -25 249 -18 260 6 10 110 -191 153 -294 19 -47 38 -50 29 -5 -7
38 -64 189 -91 244 -37 73 -53 170 -55 330 -2 135 -4 153 -19 153 -27 0 -98
-89 -142 -180 -51 -104 -53 -106 -276 -155 -91 -21 -199 -48 -240 -61 -41 -13
-131 -37 -200 -53 -304 -71 -391 -100 -483 -161 -77 -50 -122 -94 -180 -175
-50 -70 -125 -141 -136 -130 -25 27 -112 342 -131 475 -70 487 -4 945 199
1375 113 240 259 444 465 651 149 149 244 226 409 331 89 56 355 193 375 193
4 0 43 14 87 30 75 29 312 91 403 105 55 9 55 -7 1 -43 -85 -55 -174 -148
-191 -199 -9 -26 -33 -93 -52 -148 -20 -55 -36 -117 -36 -137 0 -21 -10 -61
-22 -90 -20 -50 -21 -67 -19 -273 5 -409 5 -405 19 -405 7 0 21 -15 33 -32 16
-27 19 -44 15 -88 -3 -30 -6 -62 -7 -70 -1 -8 4 -41 11 -73 6 -33 10 -61 7
-63 -2 -2 -15 5 -28 17 -16 14 -25 16 -28 8 -2 -6 5 -19 16 -28 35 -30 45 -51
49 -104 2 -28 8 -72 14 -97 6 -25 21 -92 34 -150 13 -58 36 -139 50 -181 24
-68 36 -85 119 -171 105 -108 203 -168 276 -168 29 0 44 -5 48 -16 5 -14 17
-15 74 -10 61 6 69 5 82 -14 12 -18 16 -19 27 -5 7 8 21 15 32 15 34 0 136 75
212 156 132 140 222 317 251 494 4 25 11 50 16 56 5 7 12 41 16 78 3 36 12 71
19 77 16 13 19 43 3 34 -7 -5 -10 10 -9 46 2 77 1 89 -9 89 -5 0 -12 -21 -16
-47 -21 -150 -79 -333 -105 -333 -5 0 -10 -7 -10 -15 0 -8 -9 -20 -20 -27 -11
-7 -20 -19 -20 -26 0 -7 -11 -23 -24 -35 -13 -12 -26 -34 -28 -47 -1 -14 -10
-26 -19 -28 -25 -5 -41 46 -40 130 1 98 -7 119 -66 159 -26 18 -64 46 -84 63
-53 45 -82 66 -91 66 -4 0 -26 -7 -48 -16 -38 -15 -41 -15 -75 6 -32 20 -38
21 -53 7 -9 -8 -28 -18 -42 -22 -14 -4 -57 -28 -97 -54 -86 -56 -102 -84 -110
-198 -3 -46 -11 -89 -17 -97 -6 -7 -26 -16 -45 -20 -27 -5 -31 -4 -22 8 8 10
7 24 -4 57 -9 24 -20 46 -26 49 -5 4 -18 22 -28 41 -13 24 -25 34 -42 34 -20
0 -25 6 -30 45 -4 25 -20 83 -37 130 -45 130 -57 214 -43 291 7 35 16 110 20
166 7 87 14 112 45 175 32 65 36 82 36 149 0 71 2 78 35 121 37 47 103 78 167
78 16 0 39 5 50 11 12 7 84 13 164 15 117 3 144 1 154 -12 11 -13 15 -12 32 3
16 14 38 18 102 19 102 0 149 -22 186 -88 27 -48 79 -108 94 -108 5 0 0 10
-12 23 -24 26 -29 57 -9 57 22 -1 58 -35 60 -58 1 -12 7 -22 13 -22 15 0 31
-47 39 -120 4 -30 13 -80 21 -111 8 -31 14 -86 14 -121 0 -68 17 -222 27 -248
4 -8 10 9 14 39 4 30 13 58 21 62 52 30 58 52 73 248 3 30 9 69 15 87 6 19 9
38 5 44 -3 5 2 21 11 35 13 20 14 29 5 38 -6 6 -11 28 -11 48 0 21 -4 40 -8
43 -7 4 -9 126 -3 158 0 3 16 15 35 26 19 11 42 32 52 47 15 22 15 31 5 68 -7
23 -26 56 -41 72 -16 17 -38 52 -50 79 -23 55 -41 72 -85 80 -16 4 -51 25 -78
47 -27 23 -68 47 -93 55 -53 16 -120 54 -197 112 -33 24 -70 48 -83 54 -83 38
117 16 337 -37z m-486 -1721 c35 -14 95 -64 95 -78 0 -3 -30 -6 -66 -6 -41 0
-63 -4 -59 -10 3 -5 25 -10 48 -10 23 -1 60 -8 82 -17 22 -8 54 -15 71 -14 43
1 53 -14 59 -95 6 -67 5 -70 -27 -105 -33 -36 -34 -36 -83 -27 -115 21 -116
21 -109 4 4 -10 -2 -19 -19 -27 -22 -10 -30 -8 -52 9 -40 31 -83 36 -145 16
l-53 -17 -19 24 c-39 49 -46 57 -57 60 -9 3 -10 26 -4 84 l8 80 52 0 c58 0 87
19 88 57 0 18 14 30 65 55 75 38 76 38 125 17z m459 -986 c3 -13 10 -57 16
-98 5 -41 17 -111 25 -155 22 -120 22 -123 -38 -180 -64 -60 -104 -88 -111
-76 -3 4 -8 26 -12 48 -4 30 1 61 24 129 30 87 72 282 72 330 0 30 18 31 24 2z
m102 -254 c9 -60 -9 -80 -26 -29 -12 38 -6 90 10 80 5 -3 12 -26 16 -51z
m-1138 -372 c6 -15 22 -68 37 -117 30 -101 47 -130 70 -122 20 8 19 36 -5 127
-22 85 -23 90 -12 90 8 -1 48 -81 45 -92 -3 -8 61 -198 75 -223 6 -11 23 -60
38 -110 40 -132 100 -306 146 -420 22 -55 44 -119 49 -143 5 -24 18 -64 30
-90 17 -39 69 -179 69 -188 0 -2 -28 -2 -62 -1 -60 2 -63 3 -72 32 -5 17 -25
71 -44 120 -19 50 -40 108 -47 130 -8 22 -26 72 -40 110 -15 39 -35 97 -46
130 -10 33 -38 119 -63 190 -99 288 -146 424 -175 505 -34 95 -40 130 -17 111
8 -6 18 -24 24 -39z m1046 -264 c-3 -4 -1 -8 5 -8 16 0 41 -55 41 -89 0 -16
-5 -42 -10 -56 -6 -15 -15 -63 -21 -108 -5 -45 -11 -89 -13 -97 -2 -8 -6 -42
-10 -75 -26 -201 -113 -541 -143 -552 -7 -3 -20 0 -28 7 -12 10 -16 9 -21 -4
-3 -9 -12 -16 -20 -16 -10 0 -11 6 -4 24 5 13 12 53 15 88 4 34 13 83 21 107
8 24 16 64 17 90 2 25 9 56 15 68 7 12 12 31 12 42 0 12 5 21 11 21 6 0 9 -19
7 -47 -2 -36 1 -48 11 -48 9 0 24 34 42 97 15 53 30 102 34 107 12 21 33 117
39 176 5 67 -9 100 -39 89 -15 -6 -16 -1 -10 62 3 38 10 80 15 94 4 14 11 34
15 45 5 16 8 17 15 5 5 -8 6 -18 4 -22z m292 -558 c-20 -50 -36 -96 -36 -103
-1 -19 -38 -63 -46 -54 -4 4 4 33 18 65 14 31 36 84 48 117 26 68 42 93 48 76
2 -6 -12 -52 -32 -101z"/>
<path d="M2363 4024 c-35 -15 -83 -72 -83 -98 0 -15 9 -16 83 -10 165 13 205
10 216 -18 8 -22 5 -23 -48 -29 -31 -3 -72 -9 -91 -13 l-35 -7 25 20 c36 29
19 36 -28 12 -47 -24 -60 -40 -42 -51 9 -5 9 -9 1 -14 -6 -4 -11 -16 -11 -27
0 -14 7 -19 30 -19 19 0 30 5 30 14 0 7 7 19 15 26 13 11 20 8 40 -14 19 -20
31 -26 48 -21 25 8 47 32 47 52 0 19 16 16 60 -13 54 -36 65 -20 16 22 l-39
34 41 0 c62 0 88 -35 57 -76 -8 -10 -15 -26 -15 -34 0 -12 2 -12 16 1 22 22
35 88 23 112 -8 14 -7 23 5 36 19 21 21 55 4 68 -7 6 -38 16 -68 22 -179 38
-254 44 -297 25z"/>
<path d="M3050 4003 c-63 -2 -119 -8 -124 -13 -6 -6 -18 -10 -27 -10 -10 0
-25 -7 -34 -16 -20 -20 -12 -51 21 -82 20 -19 31 -22 56 -17 l32 7 -28 -32
c-32 -38 -30 -52 8 -56 16 -2 26 0 22 3 -8 9 13 43 27 43 7 0 17 -15 22 -32
13 -42 55 -51 90 -18 26 24 45 20 45 -11 0 -15 7 -19 35 -19 28 0 35 4 35 19
0 24 -82 78 -132 85 -111 17 -112 17 -97 27 27 17 99 10 149 -16 27 -13 51
-29 55 -35 3 -5 10 -10 16 -10 16 0 10 19 -13 42 l-21 21 57 -6 c69 -7 80 6
45 59 -24 35 -87 76 -111 72 -7 -1 -65 -4 -128 -5z m37 -179 c-3 -3 -12 -4
-19 -1 -8 3 -5 6 6 6 11 1 17 -2 13 -5z"/>
<path d="M2874 3846 c-3 -7 -1 -29 4 -47 l10 -34 1 48 c1 47 -5 60 -15 33z"/>
<path d="M2683 3484 c-3 -9 0 -20 8 -25 17 -11 21 -11 38 0 12 8 12 12 2 25
-17 21 -40 20 -48 0z"/>
<path d="M2857 3483 c-14 -13 -7 -33 11 -33 24 0 32 8 25 26 -5 15 -25 19 -36
7z"/>
<path d="M2665 3180 c3 -5 12 -10 20 -10 8 0 17 5 20 10 4 6 -5 10 -20 10 -15
0 -24 -4 -20 -10z"/>
<path d="M2750 3043 c-82 -6 -116 -45 -63 -74 31 -17 63 -13 80 9 12 14 16 14
49 -1 30 -15 40 -15 62 -5 14 7 27 18 29 24 5 15 -59 55 -83 52 -11 -1 -44 -3
-74 -5z"/>
<path d="M3234 1916 c-8 -21 -1 -49 14 -54 8 -2 12 8 12 32 0 36 -16 49 -26
22z"/>
<path d="M2447 1126 c-3 -7 14 -69 38 -137 105 -302 111 -319 127 -319 21 0
19 35 -5 93 -31 76 -72 199 -97 290 -11 37 -22 72 -25 77 -9 15 -32 12 -38 -4z"/>
</g>
</svg>
